<?xml version="1.0" encoding="utf-8"?>
<!-- Uploaded to: SVG Repo, www.svgrepo.com, Generator: SVG Repo Mixer Tools -->
<svg width="800px" height="800px" viewBox="-47.05 0 307.695 307.695" xmlns="http://www.w3.org/2000/svg"><defs><style>.a{fill:#85807f;}.b{fill:#ffffff;}.c{fill:#7a7473;}.d{fill:#211715;}.e{fill:#febe69;}</style></defs><path class="a" d="M136.718,128.41a30.169,30.169,0,0,0,17.321-8.02c7.176-6.843,10.177-15.518,12.49-28.12l.059-.322,1-8.414c1.612-13.58,1.663-27.643-2.757-40.638a67.755,67.755,0,0,0-17-26.653A47.863,47.863,0,0,0,130.49,5.474c-7.289-2.822-17.8-4.16-25.658-1.783L94.751,6.739l-1.2-.266C81.6,3.808,67.528,14.588,60.814,22.625,54.136,30.621,50.053,40.3,47.66,50.2a94.777,94.777,0,0,0-.428,42.071c2.66,12.39,14.571,27.823,8.855,37.047H82.846Z"/><path class="b" d="M60.86,78.558a7.16,7.16,0,0,0-5.192-1.94,6.67,6.67,0,0,0-6.009,3.336c-2.05,3.556-1.99,10.124-.638,14.192.957,2.882,2.527,7.29,6.339,10.461a7.735,7.735,0,0,0,6.608,1.7A55.335,55.335,0,0,0,72.27,126.1c4.551,5.539,9.355,9.565,14.774,11.935-.03,1.926.022,2.8-.171,5.417a13.812,13.812,0,0,1-.663,3.845A9.453,9.453,0,0,1,83.4,151.4a24.112,24.112,0,0,1-6.043,3.452c1.255,5.435,2.61,10.966,4.043,16.519a55.374,55.374,0,0,0,25.4,5.229,55.38,55.38,0,0,0,25.406-5.233c1.47-5.7,2.858-11.368,4.144-16.947a22.6,22.6,0,0,1-5.051-3.02,9.462,9.462,0,0,1-2.814-4.106,13.774,13.774,0,0,1-.662-3.845c-.21-3.046-.13-3.729-.161-6.457A37.38,37.38,0,0,0,141.146,126.1a55.8,55.8,0,0,0,11.2-23.359s.293-1.343.711-3.241C139.39,80.45,119.538,57.472,99.428,42.351,94.822,44.389,87.06,47.9,82.079,51.626c-9.338,6.986-12.772,14.1-15.506,21.6Z"/><path class="c" d="M211.187,305.3c-4.225-53.7-5.04-62.006-7.723-85.708-1.488-13.1-4.932-24.561-10.494-33-9.342-14.187-25.169-20.8-43.592-29.808L137.054,151.3c-4.554,20.22-10.5,41.843-16.9,61.5-4.744,14.567-6.306,19.51-12.374,34.485h-1.957c-6.068-14.975-7.63-19.918-12.374-34.485-6.4-19.661-12.351-41.284-16.9-61.5l-12.324,5.478c-18.423,9.006-34.25,15.621-43.592,29.808-5.562,8.441-9.006,19.9-10.494,33-2.683,23.7-3.5,32.012-7.723,85.708Z"/><path class="d" d="M58.159,130.534c4.421-7.368.119-16.632-2.913-23.665a120.813,120.813,0,0,1-4.934-12.323,71.816,71.816,0,0,1-2.625-16.19,90.475,90.475,0,0,1,4.077-33.863c3.025-9.313,7.906-18.012,15.094-24.74a49.813,49.813,0,0,1,12.408-8.64c4.177-2,9.029-3.307,13.652-2.326,3.013.639,4.3-3.987,1.276-4.629C84.6,2.123,75.115,7,67.736,12.727A58.929,58.929,0,0,0,49.859,36.05,90.6,90.6,0,0,0,42.7,70.026c-.233,10.928,1.129,22.048,5.348,32.178,2.012,4.831,4.352,9.558,5.926,14.559a23.451,23.451,0,0,1,1.237,6.179,8.94,8.94,0,0,1-1.2,5.169c-1.593,2.655,2.555,5.072,4.144,2.423Z"/><path class="d" d="M140.174,130.294a32.89,32.89,0,0,0,17.635-10.365,42.214,42.214,0,0,0,8.344-15.593,99.361,99.361,0,0,0,2.688-11.428,2.466,2.466,0,0,0-1.677-2.952,2.421,2.421,0,0,0-2.952,1.676c-1.361,7.375-3.061,14.959-7.148,21.361A28.712,28.712,0,0,1,138.9,125.666c-3.018.648-1.741,5.276,1.276,4.628Z"/><path class="d" d="M91.8,43.23c-6.867,3.346-13.395,7.345-18.477,13.146a50.116,50.116,0,0,0-9.068,16.213,2.422,2.422,0,0,0,1.676,2.953,2.451,2.451,0,0,0,2.952-1.677,43.559,43.559,0,0,1,8.1-14.39c4.8-5.364,10.83-8.975,17.243-12.1a2.422,2.422,0,0,0,.861-3.283A2.448,2.448,0,0,0,91.8,43.23Z"/><path class="d" d="M98.453,44.6c17.422,13.194,32.415,29.8,45.761,47.022q5.131,6.621,9.892,13.519a2.463,2.463,0,0,0,3.284.861,2.422,2.422,0,0,0,.861-3.284,302.22,302.22,0,0,0-42.906-50.106c-4.627-4.282-9.443-8.35-14.47-12.157a2.414,2.414,0,0,0-3.283.861,2.459,2.459,0,0,0,.861,3.284Z"/><path class="d" d="M105.47,6.006c6.725-1.976,14.2-1.3,20.868.609a46.88,46.88,0,0,1,17.5,9.26,64.711,64.711,0,0,1,21.543,39.737c1.347,9.231.885,18.691-.2,27.922a2.414,2.414,0,0,0,2.4,2.4,2.457,2.457,0,0,0,2.4-2.4C172,66.4,171.245,48.825,163.3,33.182a68.351,68.351,0,0,0-14.549-19.354A53.588,53.588,0,0,0,129.768,2.663c-7.983-2.747-17.39-3.69-25.574-1.286-2.957.869-1.7,5.5,1.276,4.629Z"/><path class="b" d="M131.677,171.616l.42.11c-3.59,13.9-7.67,27.93-11.95,41.08-4.74,14.56-6.3,19.51-12.37,34.48h-1.96c-6.07-14.97-7.63-19.92-12.37-34.48-4.29-13.15-8.36-27.18-11.95-41.08l.41-.11a55.53,55.53,0,0,0,24.88,4.98A55.545,55.545,0,0,0,131.677,171.616Z"/><path class="d" d="M98.237,116.92a18.792,18.792,0,0,0,9.045,2.095,14.725,14.725,0,0,0,9.14-2.7,2.4,2.4,0,0,0,0-3.394,2.475,2.475,0,0,0-3.394,0c.731-.569.175-.142-.012-.022s-.368.223-.558.323c-.1.052-.2.1-.3.149-.341.176-.052-.1.108-.037-.106-.042-.644.24-.769.28a13.658,13.658,0,0,1-2.152.491c.359-.054-.033,0-.189.016-.211.021-.423.038-.634.052-.51.033-1.02.046-1.53.043q-.685,0-1.37-.049c-.209-.015-.418-.032-.627-.053-.037,0-.792-.119-.288-.03a17.719,17.719,0,0,1-2.01-.447c-.282-.084-.556-.185-.834-.28-.609-.208.367.188-.183-.071q-.516-.243-1.021-.51a2.4,2.4,0,1,0-2.423,4.145Z"/><path class="d" d="M106.036,95.645a42.228,42.228,0,0,1,1,4.556l-.086-.638a2.694,2.694,0,0,1,.017.628l.086-.638a1.518,1.518,0,0,1-.069.283l.242-.573a1.15,1.15,0,0,1-.1.182l.375-.486a.942.942,0,0,1-.149.147l.486-.376a2.826,2.826,0,0,1-.361.191l.574-.242a2.649,2.649,0,0,1-.608.178l.638-.086a2.423,2.423,0,0,1-.571,0l.638.086c-.216-.03-.427-.082-.642-.112a1.812,1.812,0,0,0-.957-.042,1.78,1.78,0,0,0-.892.284,2.4,2.4,0,0,0-.861,3.284,2.3,2.3,0,0,0,1.434,1.1c.5.067.976.193,1.481.215a4.735,4.735,0,0,0,2.189-.522,3.172,3.172,0,0,0,1.755-2.091,5.211,5.211,0,0,0-.022-2.244c-.247-1.468-.587-2.923-.964-4.362a2.4,2.4,0,0,0-4.629,1.276Z"/><path class="d" d="M82.01,82.726c-.761,2.472-.265,8.16,4.418,8.644,6.191-.037,6.52-6.913,4.436-10.146C89.158,78.577,84.141,77.476,82.01,82.726Z"/><path class="d" d="M131.583,82.726c.761,2.473.266,8.16-4.418,8.644-6.191-.037-6.52-6.914-4.437-10.146C124.434,78.577,129.451,77.476,131.583,82.726Z"/><path class="d" d="M58.752,103.376a58.462,58.462,0,0,0,8.084,19.356c4.122,6.293,9.548,12.195,16.141,15.939A32.067,32.067,0,0,0,93.93,142.5a2.478,2.478,0,0,0,2.953-1.676,2.419,2.419,0,0,0-1.677-2.953c-13.6-2.083-23.712-14-28.8-26.12a56.255,56.255,0,0,1-3.026-9.647c-.665-3.016-5.294-1.74-4.629,1.276Z"/><path class="d" d="M150.035,102.1a53.612,53.612,0,0,1-10,21.575,40.52,40.52,0,0,1-8.417,8.268,37.461,37.461,0,0,1-9.981,4.821c-2.924.953-1.672,5.59,1.276,4.628a40.841,40.841,0,0,0,16.363-9.663,56.569,56.569,0,0,0,12.362-18.706,57.85,57.85,0,0,0,3.027-9.647c.664-3.011-3.963-4.3-4.629-1.276Z"/><path class="d" d="M62.557,76.861A10.179,10.179,0,0,0,51.3,75.241a9.875,9.875,0,0,0-4.992,6.722c-1.724,6.643-.086,14.221,3.574,19.951,2.506,3.924,6.593,7.554,11.582,6.9a2.479,2.479,0,0,0,2.4-2.4,2.414,2.414,0,0,0-2.4-2.4c-4,.527-6.687-2.915-8.358-6.114a22.416,22.416,0,0,1-2.591-8.632c-.2-2.838-.137-6.3,1.6-8.7-.3.412.739-.7.617-.611a4.713,4.713,0,0,1,2-.844,5.092,5.092,0,0,1,4.431,1.144c2.274,2.083,5.678-1.3,3.394-3.395Z"/><path class="d" d="M77.669,157.3c3.784-1.564,7.883-3.542,9.927-7.3,1.846-3.389,1.812-7.364,1.839-11.129a2.4,2.4,0,1,0-4.8,0c-.009,1.328-.033,2.651-.12,3.976a20.513,20.513,0,0,1-.243,2.45,8.622,8.622,0,0,1-.329,1.223c-.03.083-.226.551-.1.268-.085.192-.178.381-.274.568a7.326,7.326,0,0,1-2.85,3.04,27.631,27.631,0,0,1-4.326,2.271,2.478,2.478,0,0,0-1.676,2.952,2.414,2.414,0,0,0,2.952,1.676Z"/><path class="d" d="M125.263,138.875c0,3.5-.007,7.185,1.472,10.416,1.611,3.518,4.991,5.65,8.4,7.2a2.458,2.458,0,0,0,3.283-.861,2.427,2.427,0,0,0-.861-3.283,24.459,24.459,0,0,1-4.275-2.427,6.863,6.863,0,0,1-2.4-3.052c-.17-.364.1.281-.043-.1-.083-.213-.16-.428-.224-.647a9.044,9.044,0,0,1-.269-1.238,2.408,2.408,0,0,1-.037-.338c-.015-.184-.034-.368-.049-.553-.039-.46-.07-.921-.1-1.383-.074-1.245-.1-2.489-.1-3.736a2.4,2.4,0,1,0-4.8,0Z"/><path class="d" d="M148.166,158.85c6.611,3.228,13.3,6.315,19.767,9.833A77.855,77.855,0,0,1,183.767,179.5c10.235,9.447,14.721,22.757,16.784,36.221,1.152,7.524,1.8,15.164,2.571,22.736s1.458,15.171,2.106,22.763c1.068,12.527,2.059,25.06,3.048,37.593q.256,3.24.511,6.48a2.461,2.461,0,0,0,2.4,2.4,2.419,2.419,0,0,0,2.4-2.4c-1.071-13.608-2.14-27.216-3.284-40.818-.675-8.027-1.38-16.052-2.183-24.068q-1.056-10.533-2.283-21.051c-1.656-14.3-5.582-29.058-15.441-39.984-9.27-10.274-22.316-16.212-34.554-22.122q-2.628-1.269-5.253-2.547a2.464,2.464,0,0,0-3.284.861,2.423,2.423,0,0,0,.861,3.284Z"/><path class="d" d="M169.653,212.912c-.2,12.6-.631,25.192-1.207,37.784q-.808,17.709-1.563,35.419-.41,9.589-.8,19.181c-.124,3.089,4.676,3.084,4.8,0q.714-17.9,1.52-35.8c.5-11.263,1.07-22.523,1.483-33.789.278-7.595.445-15.193.565-22.791.05-3.09-4.75-3.091-4.8,0Z"/><path class="d" d="M80.695,173.684a61.356,61.356,0,0,0,26.1,5.316,61.351,61.351,0,0,0,26.1-5.316,2.417,2.417,0,0,0,.861-3.283,2.455,2.455,0,0,0-3.283-.861c-7.505,3.453-15.478,4.66-23.674,4.66s-16.169-1.207-23.674-4.66a2.47,2.47,0,0,0-3.284.861,2.419,2.419,0,0,0,.861,3.283Z"/><path class="d" d="M124.834,249.144c11.518-19.965,22.906-40.026,33.428-60.538.759-1.479,1.432-2.912.959-4.606-.441-1.576-1.767-2.725-2.863-3.864-2.306-2.394-4.716-4.684-7.14-6.957l-.486,3.769,5.811-3.317c1.8-1.029,4.1-1.928,3.938-4.4-.1-1.526-1.27-3.1-2.159-4.306a38.554,38.554,0,0,0-3.076-3.652,81.778,81.778,0,0,0-14.981-12.049,2.418,2.418,0,0,0-3.526,1.434,704.18,704.18,0,0,1-22.326,77.831c-2.144,6.118-4.519,12.15-6.952,18.158a2.415,2.415,0,0,0,1.676,2.952,2.459,2.459,0,0,0,2.952-1.676c9.578-23.653,17.133-48.16,23.617-72.827q3.032-11.53,5.662-23.162l-3.526,1.434a86.27,86.27,0,0,1,10.028,7.519,55.4,55.4,0,0,1,4.81,4.673,24.4,24.4,0,0,1,1.679,2.037c.288.4.564.809.82,1.229q.147.238.284.483c.042.075.249.637.237.361l.327-1.211c.207-.4-.2.052-.454.2l-1.038.593-2.075,1.184-4.151,2.369a2.422,2.422,0,0,0-.485,3.77c2.077,1.948,4.144,3.908,6.144,5.936q.668.677,1.324,1.364c.378.4,1.085.882,1.295,1.381.044.106.086-.167-.059.128-.331.675-.686,1.339-1.03,2.008q-3.7,7.184-7.539,14.3-7.848,14.58-16.061,28.96-4.573,8.055-9.209,16.077c-1.546,2.68,2.6,5.1,4.145,2.422Z"/><path class="d" d="M63,154.705c-12.565,6.137-26,11.716-36.442,21.282-10.552,9.672-15.643,23.287-17.938,37.138-1.356,8.185-2.049,16.528-2.9,24.781-.783,7.634-1.475,15.277-2.128,22.923C2.517,273.487,1.517,286.151.517,298.815q-.257,3.24-.511,6.48a2.421,2.421,0,0,0,2.4,2.4,2.448,2.448,0,0,0,2.4-2.4q1.59-20.2,3.249-40.4c.669-7.98,1.368-15.958,2.162-23.926.679-6.808,1.433-13.608,2.2-20.407,1.5-13.305,4.893-27.431,14.054-37.665,8.991-10.045,21.787-15.749,33.7-21.5q2.63-1.269,5.254-2.547a2.425,2.425,0,0,0,.861-3.284A2.451,2.451,0,0,0,63,154.705Z"/><path class="d" d="M39.14,212.912c.2,12.6.631,25.192,1.207,37.784q.809,17.709,1.563,35.419.41,9.589.8,19.181c.123,3.079,4.924,3.094,4.8,0q-.714-17.9-1.52-35.8c-.5-11.263-1.07-22.523-1.483-33.789-.278-7.595-.445-15.193-.565-22.791-.05-3.086-4.85-3.1-4.8,0Z"/><path class="d" d="M92.9,246.722C81.989,227.8,71.2,208.8,61.139,189.408c-.7-1.34-1.4-2.676-2.075-4.026a.675.675,0,0,1-.074-.215c0,.266-.017.135.337-.26.526-.588,1.083-1.152,1.633-1.718,2.2-2.272,4.5-4.451,6.809-6.616a2.422,2.422,0,0,0-.486-3.77l-4.15-2.369-1.868-1.066-1.037-.592-.415-.237q-.69-.459-.247-.077l.327,1.211c-.013.3.1-.136.171-.242.124-.2.229-.405.35-.6.23-.377.476-.744.732-1.105A23.342,23.342,0,0,1,62.8,165.69a54.943,54.943,0,0,1,4.923-4.8,86.27,86.27,0,0,1,10.028-7.519l-3.526-1.434a704.481,704.481,0,0,0,22.327,77.832c2.144,6.117,4.519,12.149,6.951,18.157a2.477,2.477,0,0,0,2.953,1.676,2.416,2.416,0,0,0,1.676-2.952C98.555,223,91,198.49,84.515,173.823q-3.03-11.531-5.661-23.162a2.418,2.418,0,0,0-3.526-1.434,81.744,81.744,0,0,0-14.981,12.049,38.554,38.554,0,0,0-3.076,3.652,10.478,10.478,0,0,0-2.116,3.987c-.476,2.623,2.032,3.653,3.895,4.716l5.811,3.317-.486-3.769c-2.193,2.056-4.374,4.126-6.478,6.275-1.907,1.949-4.379,4.042-3.512,7.086a21.106,21.106,0,0,0,1.774,3.675q1.046,2.028,2.1,4.05,1.932,3.695,3.9,7.369c5.5,10.283,11.17,20.472,16.923,30.614q4.8,8.468,9.674,16.9c1.543,2.675,5.693.261,4.145-2.422Z"/><path class="e" d="M141.7,183.357a5,5,0,0,0-5.1,5.068,4.918,4.918,0,0,0,5.1,5.164,4.867,4.867,0,0,0,5.1-5.164A5,5,0,0,0,141.7,183.357Z"/><path class="d" d="M141.7,180.957a7.524,7.524,0,0,0-7.173,5.254,7.671,7.671,0,0,0,2.465,8.193,7.957,7.957,0,0,0,8.631.583,7.628,7.628,0,0,0,3.439-7.944,7.449,7.449,0,0,0-7.362-6.086,2.4,2.4,0,0,0,0,4.8c.148,0,.3.013.444.017.521.014-.568-.13-.069-.011.226.053.45.1.671.171a1.582,1.582,0,0,0,.256.092l-.326-.138c.081.036.161.075.24.116.232.12.436.3.666.417-.52-.266-.269-.213-.087-.045.063.059.125.119.185.18a2.633,2.633,0,0,0,.258.287c-.374-.271-.249-.361-.1-.126.125.2.243.4.359.611.095.169.048.319-.082-.217.04.166.122.329.17.494.061.212.077.44.142.648-.18-.573-.036-.406-.035-.169,0,.114.011.227.011.341a6.813,6.813,0,0,0-.036.695c-.061-.55.062-.4,0-.109-.029.149-.065.3-.107.443q-.043.153-.1.3c-.095.271-.271.327.054-.11-.117.157-.186.368-.292.536-.054.084-.119.163-.17.249-.152.258.419-.471.114-.158-.161.166-.363.325-.513.5.375-.437.32-.235.1-.089-.068.044-.137.087-.206.128-.106.063-.216.115-.324.174-.393.215.47-.147.173-.069-.227.06-.445.153-.675.207-.087.02-.174.033-.26.053-.407.094.634-.047-.04,0a6.414,6.414,0,0,1-.707.008,3.175,3.175,0,0,0-.41-.033c.039,0,.616.116.24.025-.233-.056-.465-.1-.693-.18-.1-.033-.2-.082-.3-.109.659.179.27.113.064,0s-.375-.251-.569-.365c.614.36.127.087-.063-.109-.07-.072-.132-.159-.205-.226-.222-.2.352.519.112.145-.136-.211-.258-.424-.38-.643-.229-.414.189.561.041.105-.026-.082-.058-.163-.084-.246a6.841,6.841,0,0,0-.183-.778c.017.038.053.626.034.226-.007-.142-.021-.283-.024-.426,0-.116,0-.232,0-.349.01-.258.172-.609-.029.036.078-.249.1-.518.179-.77a3.462,3.462,0,0,0,.132-.369c-.045.235-.219.473-.024.1.12-.228.293-.428.412-.653-.28.53-.211.267-.047.089.087-.095.179-.187.273-.274.181-.168.435-.226-.087.043.109-.056.218-.156.323-.222s.226-.136.343-.2c.079-.041.159-.08.24-.116l-.326.137a6.061,6.061,0,0,0,.79-.237l.139-.028q.386-.063-.213.024a2.815,2.815,0,0,0,.59-.03,2.4,2.4,0,0,0,0-4.8Z"/></svg>